<svg width="846" height="476" viewBox="0 0 846 476" fill="none" xmlns="http://www.w3.org/2000/svg">
<path d="M669.331 159.037C620.224 117.854 539.307 134.364 482.462 147.256C447.939 155.083 413.042 163.418 377.479 164.145C344.419 164.819 319.048 155.484 289.601 142.249C271.108 133.937 257.431 120.802 239.978 111.022C221.978 100.934 203.053 92.1764 182.758 87.9276C147.856 80.6202 119.757 90.7396 103.644 122.535C88.1691 153.069 85.3359 188.888 87.3848 222.561C88.645 243.262 92.0906 264.413 98.1184 284.683C117.524 349.908 177.717 394.463 245.759 394.463H708.512C723.352 377.076 732.729 356.885 737.531 334.606C751.438 270.103 719.884 201.432 669.331 159.037Z" fill="url(#paint0_radial_25_1066)"/>
<path d="M366.159 410.33L432.694 425.755" stroke="#EECFF8" stroke-width="0.385417" stroke-miterlimit="10"/>
<path d="M436.219 425.755L412.866 413.415" stroke="#EECFF8" stroke-width="0.385417" stroke-miterlimit="10"/>
<path d="M397.884 426.637L328.706 428.4" stroke="#EECFF8" stroke-width="0.385417" stroke-miterlimit="10"/>
<path d="M416.466 426.655C417.316 426.655 417.316 425.332 416.466 425.332C415.615 425.332 415.611 426.655 416.466 426.655Z" fill="#EECFF8"/>
<path d="M440.51 421.088C441.361 421.088 441.361 419.766 440.51 419.766C439.66 419.766 439.655 421.088 440.51 421.088Z" fill="#EECFF8"/>
<path d="M440.731 428.21C441.581 428.21 441.581 426.888 440.731 426.888C439.88 426.888 439.88 428.21 440.731 428.21Z" fill="#EECFF8"/>
<path d="M315.166 427.545C316.016 427.545 316.016 426.223 315.166 426.223C314.315 426.223 314.315 427.545 315.166 427.545Z" fill="#EECFF8"/>
<path d="M376.616 401.043C377.466 401.043 377.466 399.721 376.616 399.721C375.765 399.721 375.761 401.043 376.616 401.043Z" fill="#EECFF8"/>
<path d="M347.671 387.684C348.521 387.684 348.521 386.362 347.671 386.362C346.82 386.362 346.82 387.684 347.671 387.684Z" fill="#EECFF8"/>
<path d="M539.325 425.976H595.725" stroke="#EECFF8" stroke-width="0.385417" stroke-miterlimit="10"/>
<path d="M604.978 425.976H719.541" stroke="#EECFF8" stroke-width="0.385417" stroke-miterlimit="10"/>
<path d="M570.389 420.246H617.095" stroke="#EECFF8" stroke-width="0.385417" stroke-miterlimit="10"/>
<path d="M658.62 398.967C658.62 398.967 660.1 401.435 668.49 401.929C676.879 402.423 676.879 410.321 681.814 410.321C686.749 410.321 684.282 405.878 682.308 403.904C680.334 401.929 676.386 398.474 676.386 398.474C676.386 398.474 669.97 396.993 667.996 394.525C666.022 392.056 660.594 390.082 660.594 390.082L658.62 398.967Z" fill="#FB8F8F"/>
<path d="M658.62 398.967C658.62 398.967 660.1 401.435 668.49 401.929C676.879 402.423 676.879 410.321 681.814 410.321C686.749 410.321 684.282 405.878 682.308 403.904C680.334 401.929 676.386 398.474 676.386 398.474C676.386 398.474 669.97 396.993 667.996 394.525C666.022 392.056 660.594 390.082 660.594 390.082L658.62 398.967Z" fill="url(#paint1_radial_25_1066)"/>
<path d="M658.62 398.967C658.62 398.967 660.1 401.435 668.49 401.929C676.879 402.423 676.879 410.321 681.814 410.321C686.749 410.321 684.282 405.878 682.308 403.904C680.334 401.929 676.386 398.474 676.386 398.474C676.386 398.474 669.97 396.993 667.996 394.525C666.022 392.056 660.594 390.082 660.594 390.082L658.62 398.967Z" fill="url(#paint2_radial_25_1066)"/>
<path d="M605.317 388.597C605.317 388.597 603.343 394.027 598.902 399.456C598.902 399.456 596.434 400.937 600.382 403.406C604.33 405.874 609.759 408.342 610.252 412.784C610.252 412.784 610.746 414.759 608.278 415.253C605.811 415.746 601.863 413.278 601.863 413.278C601.863 413.278 597.915 409.329 593.967 407.355C590.019 405.38 586.071 403.406 586.071 400.937C586.071 398.469 590.512 391.065 590.512 391.065C590.512 391.065 601.369 381.192 605.317 388.597Z" fill="#FB8F8F"/>
<path d="M605.317 388.597C605.317 388.597 603.343 394.027 598.902 399.456C598.902 399.456 596.434 400.937 600.382 403.406C604.33 405.874 609.759 408.342 610.252 412.784C610.252 412.784 610.746 414.759 608.278 415.253C605.811 415.746 601.863 413.278 601.863 413.278C601.863 413.278 597.915 409.329 593.967 407.355C590.019 405.38 586.071 403.406 586.071 400.937C586.071 398.469 590.512 391.065 590.512 391.065C590.512 391.065 601.369 381.192 605.317 388.597Z" fill="url(#paint3_radial_25_1066)"/>
<path d="M605.317 388.597C605.317 388.597 603.343 394.027 598.902 399.456C598.902 399.456 596.434 400.937 600.382 403.406C604.33 405.874 609.759 408.342 610.252 412.784C610.252 412.784 610.746 414.759 608.278 415.253C605.811 415.746 601.863 413.278 601.863 413.278C601.863 413.278 597.915 409.329 593.967 407.355C590.019 405.38 586.071 403.406 586.071 400.937C586.071 398.469 590.512 391.065 590.512 391.065C590.512 391.065 601.369 381.192 605.317 388.597Z" fill="url(#paint4_radial_25_1066)"/>
<path d="M630.922 368.697C623.771 369.31 616.575 368.362 609.75 366.132C601.973 363.589 587.772 360.226 574.712 363.915C563.744 367.009 557.421 373.47 550.543 378.64C543.366 384.031 534.377 386.419 525.454 385.428L519.695 384.789C519.166 384.731 518.854 385.366 519.224 385.749C520.964 387.543 526.305 390.664 541.643 388.107C562.374 384.652 569.283 375.767 569.283 375.767C569.283 375.767 569.777 384.652 567.309 389.095C564.842 393.537 557.933 400.942 557.933 400.942L563.361 415.257C563.361 415.257 566.816 416.738 571.751 415.257L573.231 413.776C573.231 413.776 573.725 409.827 570.27 409.333C570.27 409.333 567.803 408.346 569.283 403.904C570.764 399.461 573.231 397.98 584.088 397.98C594.945 397.98 599.885 390.576 599.885 390.576C599.885 390.576 609.261 391.069 615.681 396.499C622.096 401.929 639.867 408.346 650.23 404.891C650.23 404.891 654.672 409.333 655.165 412.789C655.659 416.244 656.152 418.219 661.581 417.725C661.581 417.725 665.529 417.232 664.542 414.27C663.555 411.308 661.087 414.27 660.1 410.321C659.113 406.372 658.62 401.929 658.62 401.929C658.62 401.929 665.529 399.461 664.542 387.614C663.555 375.767 668.49 369.345 675.399 370.332C682.308 371.32 689.217 372.307 689.217 372.307C689.217 372.307 695.139 374.281 701.554 369.839C707.97 365.396 708.957 362.928 708.957 362.928L708.463 360.46C708.463 360.46 691.68 354.043 689.706 352.562C687.732 351.081 680.823 344.664 680.823 344.664C680.823 344.664 662.066 344.664 657.624 349.106C653.183 353.549 646.767 364.409 640.347 366.881C637.928 367.811 634.504 368.393 630.922 368.697Z" fill="#FB8F8F"/>
<path d="M647.146 361.689C647.146 361.689 655.91 373.043 667.754 374.03L664.947 379.341C664.947 379.341 650.482 376.498 643.806 364.814L647.146 361.689Z" fill="url(#paint5_radial_25_1066)"/>
<path d="M630.922 368.697C623.771 369.31 616.575 368.362 609.75 366.132C601.973 363.589 587.772 360.226 574.712 363.915C563.758 367.005 557.439 373.453 550.57 378.618C543.379 384.026 534.359 386.419 525.415 385.423L519.695 384.789C519.166 384.731 518.854 385.366 519.224 385.749C520.964 387.543 526.305 390.664 541.643 388.107C562.374 384.652 569.283 375.767 569.283 375.767C569.283 375.767 569.777 384.652 567.309 389.095C564.842 393.537 557.933 400.942 557.933 400.942L563.361 415.257C563.361 415.257 566.816 416.738 571.751 415.257L573.231 413.776C573.231 413.776 573.725 409.827 570.27 409.333C570.27 409.333 567.803 408.346 569.283 403.904C570.764 399.461 573.231 397.98 584.088 397.98C594.945 397.98 599.885 390.576 599.885 390.576C599.885 390.576 609.261 391.069 615.681 396.499C622.096 401.929 639.867 408.346 650.23 404.891C650.23 404.891 654.672 409.333 655.165 412.789C655.659 416.244 656.152 418.219 661.581 417.725C661.581 417.725 665.529 417.232 664.542 414.27C663.555 411.308 661.087 414.27 660.1 410.321C659.113 406.372 658.62 401.929 658.62 401.929C658.62 401.929 665.529 399.461 664.542 387.614C663.555 375.767 668.49 369.345 675.399 370.332C682.308 371.32 689.217 372.307 689.217 372.307C689.217 372.307 695.139 374.281 701.554 369.839C707.97 365.396 708.957 362.928 708.957 362.928L708.463 360.46C708.463 360.46 691.68 354.043 689.706 352.562C687.732 351.081 680.823 344.664 680.823 344.664C680.823 344.664 662.066 344.664 657.624 349.106C653.183 353.549 646.767 364.409 640.347 366.881C637.928 367.811 634.504 368.393 630.922 368.697Z" fill="url(#paint6_radial_25_1066)"/>
<path d="M584.093 397.98C589.155 397.98 592.932 396.371 595.518 394.648C594.174 393.722 592.729 392.938 591.165 392.338C586.846 390.672 582.008 390.408 577.426 390.144C573.249 389.906 569.252 390.091 565.56 391.783C562.524 396.01 557.928 400.937 557.928 400.937L563.357 415.253C563.357 415.253 566.811 416.734 571.746 415.253L573.227 413.772C573.227 413.772 573.72 409.823 570.266 409.329C570.266 409.329 567.798 408.342 569.279 403.899C570.759 399.456 573.236 397.98 584.093 397.98Z" fill="url(#paint7_radial_25_1066)"/>
<path d="M660.1 410.321C659.783 409.051 659.519 407.738 659.303 406.53C657.073 406.363 654.853 406.971 653.121 408.39C654.081 409.77 654.958 411.365 655.161 412.789C655.654 416.244 656.148 418.219 661.576 417.725C661.576 417.725 665.524 417.232 664.537 414.27C663.559 411.308 661.087 414.27 660.1 410.321Z" fill="url(#paint8_radial_25_1066)"/>
<path d="M689.715 352.557C689.415 352.332 689.001 351.993 688.516 351.583C687.864 351.764 687.216 351.953 686.573 352.161C680.796 354.029 674.8 357.075 671.909 362.694C670.512 365.418 669.917 368.433 669.662 371.491C671.305 370.434 673.257 370.028 675.399 370.332C682.308 371.32 689.217 372.307 689.217 372.307C689.217 372.307 695.139 374.281 701.554 369.839C707.97 365.396 708.957 362.928 708.957 362.928L708.463 360.46C708.472 360.455 691.689 354.038 689.715 352.557Z" fill="url(#paint9_radial_25_1066)"/>
<path d="M679.761 350.605C679.62 351.38 679.246 352.09 678.748 352.703C677.479 354.259 674.747 358.864 675.901 368.847C677.382 381.681 664.057 382.669 662.083 374.277C660.651 368.186 661.299 360.015 661.761 355.991C661.942 354.435 662.876 353.077 664.26 352.346C669.226 349.714 680.924 344.13 679.761 350.605Z" fill="url(#paint10_radial_25_1066)"/>
<path d="M684.78 351.57H685.767L689.221 352.557L690.702 355.025L687.741 357.987L684.78 358.974C681.819 355.519 684.78 351.57 684.78 351.57Z" fill="url(#paint11_radial_25_1066)"/>
<path d="M708.966 362.923L708.472 360.455C708.472 360.455 707.873 360.226 706.886 359.843C706.886 359.843 703.044 360.949 703.537 362.923C703.859 364.215 706.08 364.66 707.578 364.814C708.701 363.58 708.966 362.923 708.966 362.923Z" fill="url(#paint12_radial_25_1066)"/>
<path d="M685.273 357.247C685.956 357.247 686.507 356.363 686.507 355.272C686.507 354.182 685.956 353.298 685.273 353.298C684.59 353.298 684.04 354.182 684.04 355.272C684.04 356.363 684.59 357.247 685.273 357.247Z" fill="url(#paint13_radial_25_1066)"/>
<path d="M687.494 368.605C687.494 368.605 688.974 371.073 693.416 372.06" stroke="#0061FE" stroke-width="0.385417" stroke-miterlimit="10"/>
<path d="M678.858 367.864C676.989 363.598 676.893 358.75 678.858 352.553C678.818 352.601 678.787 352.659 678.748 352.707C677.479 354.263 674.747 358.869 675.901 368.851C675.963 369.398 675.989 369.914 676.002 370.416C677.615 370.645 679.215 370.874 680.717 371.09C679.739 369.856 679.157 368.543 678.858 367.864Z" fill="url(#paint14_radial_25_1066)"/>
<path d="M650.23 404.891C647.763 401.929 647.763 399.954 647.763 399.954C649.243 394.031 647.763 392.056 647.763 392.056C647.763 396.993 645.295 399.461 645.295 399.461C645.295 399.461 632.958 404.397 623.083 394.031C613.213 383.665 612.226 382.677 612.226 382.677C605.317 382.677 599.889 390.576 599.889 390.576L600.427 390.62C602.497 390.818 610.178 391.84 615.685 396.499C622.096 401.929 639.867 408.346 650.23 404.891Z" fill="url(#paint15_radial_25_1066)"/>
<path d="M699.404 366.009C700.043 366.009 700.043 365.017 699.404 365.017C698.77 365.017 698.765 366.009 699.404 366.009Z" fill="#0061FE"/>
<path d="M697.536 368.962C697.963 368.962 697.963 368.3 697.536 368.3C697.108 368.3 697.108 368.962 697.536 368.962Z" fill="#0061FE"/>
<path d="M695.914 366.842C696.342 366.842 696.342 366.181 695.914 366.181C695.491 366.181 695.487 366.842 695.914 366.842Z" fill="#0061FE"/>
<path d="M692.425 366.551C692.636 366.551 692.636 366.22 692.425 366.22C692.209 366.22 692.209 366.551 692.425 366.551Z" fill="#0061FE"/>
<path d="M699.779 368.049C699.99 368.049 699.99 367.719 699.779 367.719C699.567 367.719 699.567 368.049 699.779 368.049Z" fill="#0061FE"/>
<path d="M643.075 363.664C644.163 363.664 645.049 362.78 645.049 361.689C645.049 360.599 644.163 359.715 643.075 359.715C641.986 359.715 641.101 360.599 641.101 361.689C641.101 362.78 641.986 363.664 643.075 363.664Z" stroke="#0144B9" stroke-width="0.385417" stroke-miterlimit="10"/>
<path d="M644.683 362.835L645.37 363.47" stroke="#0144B9" stroke-width="0.385417" stroke-miterlimit="10"/>
<path d="M647.939 372.206C647.939 372.206 653.667 378.817 661.598 379.698" stroke="#0061FE" stroke-width="0.385417" stroke-miterlimit="10"/>
<path d="M674.817 368.68C674.817 368.68 675.258 374.85 672.173 377.054" stroke="#F1D23C" stroke-width="0.385417" stroke-miterlimit="10"/>
<path d="M583.167 396.446C583.167 396.446 593.742 396.446 598.148 390.276" stroke="#F1D23C" stroke-width="0.385417" stroke-miterlimit="10"/>
<path d="M618.417 396.446C618.417 396.446 626.349 402.617 636.042 403.498" stroke="#EECFF8" stroke-width="0.385417" stroke-miterlimit="10"/>
<path d="M567.084 132.663H499.669V172.77H567.084V132.663Z" stroke="#DEF4FF" stroke-width="0.385417" stroke-miterlimit="10"/>
<path d="M563.119 127.815H495.703V167.922H563.119V127.815Z" fill="url(#paint16_radial_25_1066)"/>
<path d="M573.473 117.898C586.86 117.898 597.708 107.045 597.708 93.6574C597.708 80.2694 586.86 69.4166 573.473 69.4166C560.087 69.4166 549.239 80.2694 549.239 93.6574C549.239 107.045 560.087 117.898 573.473 117.898Z" stroke="#0061FE" stroke-width="0.385417" stroke-miterlimit="10"/>
<path d="M578.761 117.898C592.147 117.898 602.995 107.045 602.995 93.6574C602.995 80.2694 592.147 69.4166 578.761 69.4166C565.375 69.4166 554.527 80.2694 554.527 93.6574C554.527 107.045 565.375 117.898 578.761 117.898Z" fill="#DEF4FF"/>
<path d="M569.728 113.27H517.734V138.833H569.728V113.27Z" fill="#FFDE99"/>
<path d="M569.728 113.27H517.734V138.833H569.728V113.27Z" fill="url(#paint17_radial_25_1066)"/>
<path d="M543.511 126.272L517.734 113.601V138.833H569.728V113.38L543.511 126.272Z" fill="url(#paint18_radial_25_1066)"/>
<path d="M575.236 107.32H523.242V132.883H575.236V107.32Z" fill="#FFDE99"/>
<path d="M549.019 120.322L523.242 107.651V132.883H575.236V107.43L549.019 120.322Z" fill="url(#paint19_radial_25_1066)"/>
<path d="M570.609 115.474H581.625" stroke="#0061FE" stroke-width="0.385417" stroke-miterlimit="10"/>
<path d="M570.609 117.898H581.625" stroke="#0061FE" stroke-width="0.385417" stroke-miterlimit="10"/>
<path d="M570.609 120.542H581.625" stroke="#0061FE" stroke-width="0.385417" stroke-miterlimit="10"/>
<path d="M540.647 145.004H481.603V149.852H540.647V145.004Z" fill="url(#paint20_radial_25_1066)"/>
<path d="M540.647 152.496H481.603V157.344H540.647V152.496Z" fill="url(#paint21_radial_25_1066)"/>
<path d="M578.761 93.6881C581.682 93.6881 584.048 91.32 584.048 88.3992C584.048 85.4785 581.682 83.1104 578.761 83.1104C575.84 83.1104 573.473 85.4785 573.473 88.3992C573.473 91.32 575.84 93.6881 578.761 93.6881Z" fill="#0061FE"/>
<path d="M589.957 104.204C588.309 99.3605 583.916 95.8918 578.761 95.8918C573.606 95.8918 569.213 99.3561 567.565 104.204H589.957Z" fill="#0061FE"/>
<path d="M646.397 137.07H604.097V127.374L599.691 118.118H604.097V108.422H646.397V137.07Z" fill="#0061FE"/>
<path d="M623.044 112.83H665.344V103.133L669.75 93.8777H665.344V84.1814H623.044V112.83Z" stroke="#0061FE" stroke-width="0.385417" stroke-miterlimit="10"/>
<path d="M626.348 88.8092C627.08 88.8092 627.67 88.2173 627.67 87.487C627.67 86.7567 627.08 86.1648 626.348 86.1648C625.617 86.1648 625.027 86.7567 625.027 87.487C625.027 88.2173 625.617 88.8092 626.348 88.8092Z" stroke="#0061FE" stroke-width="0.385417" stroke-miterlimit="10"/>
<path d="M624.806 126.052C626.512 126.052 627.891 124.671 627.891 122.967C627.891 121.263 626.512 119.881 624.806 119.881C623.101 119.881 621.722 121.263 621.722 122.967C621.722 124.671 623.101 126.052 624.806 126.052Z" fill="white"/>
<path d="M614.231 126.052C615.936 126.052 617.316 124.671 617.316 122.967C617.316 121.263 615.936 119.881 614.231 119.881C612.526 119.881 611.147 121.263 611.147 122.967C611.147 124.671 612.526 126.052 614.231 126.052Z" fill="white"/>
<path d="M635.381 126.052C637.086 126.052 638.466 124.671 638.466 122.967C638.466 121.263 637.086 119.881 635.381 119.881C633.676 119.881 632.297 121.263 632.297 122.967C632.297 124.671 633.676 126.052 635.381 126.052Z" fill="white"/>
<path d="M623.321 158.79C619.21 156.401 614.125 156.436 610.045 158.887C605.969 161.333 600.885 161.373 596.769 158.984L596.443 158.794C592.332 156.406 587.247 156.441 583.167 158.891C579.091 161.338 574.007 161.377 569.891 158.988L569.565 158.799C565.454 156.41 560.369 156.445 556.289 158.896" stroke="#0061FE" stroke-width="0.385417" stroke-miterlimit="10"/>
<path d="M658.955 72.0611C662.603 72.0611 665.564 69.1011 665.564 65.45C665.564 61.7989 662.603 58.8389 658.955 58.8389C655.306 58.8389 652.345 61.7989 652.345 65.45C652.345 69.1011 655.306 72.0611 658.955 72.0611Z" stroke="#FA404B" stroke-width="0.385417" stroke-miterlimit="10"/>
<path d="M641.991 139.274H648.159V133.104" stroke="#FA404B" stroke-width="0.385417" stroke-miterlimit="10"/>
<path d="M210.46 287.389C210.46 287.389 204.547 285.648 198.268 285.675C195.712 285.684 193.254 284.718 191.434 282.92C190.698 282.193 189.945 281.237 189.315 280.36C188.398 279.09 186.618 278.83 185.38 279.787C178.149 285.393 156.99 303.208 158.629 318.426C158.74 319.449 160.013 319.859 160.7 319.092C163.542 315.932 170.747 308.624 186.274 296.27C186.274 296.27 197.131 296.27 203.551 301.207C209.971 306.143 210.46 287.389 210.46 287.389Z" fill="#FFDE99"/>
<path d="M210.46 287.389C210.46 287.389 204.547 285.648 198.268 285.675C195.712 285.684 193.254 284.718 191.434 282.92C190.698 282.193 189.945 281.237 189.315 280.36C188.398 279.09 186.618 278.83 185.38 279.787C178.149 285.393 156.99 303.208 158.629 318.426C158.74 319.449 160.013 319.859 160.7 319.092C163.542 315.932 170.747 308.624 186.274 296.27C186.274 296.27 197.131 296.27 203.551 301.207C209.971 306.143 210.46 287.389 210.46 287.389Z" fill="url(#paint22_radial_25_1066)"/>
<path d="M335.827 279.491C335.827 279.491 299.797 324.416 276.104 335.28C276.104 335.28 205.525 309.113 198.118 299.735C198.118 299.735 201.079 286.407 207.495 284.926C213.91 283.445 251.667 290.602 266.97 307.39C266.97 307.39 284.741 242.716 306.948 237.286C329.164 231.847 335.827 279.491 335.827 279.491Z" fill="#0144B9"/>
<path d="M335.827 279.491C335.827 279.491 299.797 324.416 276.104 335.28C276.104 335.28 205.525 309.113 198.118 299.735C198.118 299.735 201.079 286.407 207.495 284.926C213.91 283.445 251.667 290.602 266.97 307.39C266.97 307.39 284.741 242.716 306.948 237.286C329.164 231.847 335.827 279.491 335.827 279.491Z" fill="url(#paint23_radial_25_1066)"/>
<path d="M439.475 402.916C439.475 402.916 447.371 410.321 450.826 416.244C451.954 418.175 452.659 419.634 453.099 420.727C454.787 424.9 459.709 426.8 463.665 424.658C465.247 423.803 489.847 411.537 500.035 394.983C500.497 394.234 499.779 393.145 498.968 393.484C491.79 396.499 484.375 398.972 474.514 402.916C462.775 407.615 456.25 397.98 450.328 390.576C444.41 383.167 439.475 402.916 439.475 402.916Z" fill="#FFDE99"/>
<path d="M439.475 402.916C439.475 402.916 447.371 410.321 450.826 416.244C451.954 418.175 452.659 419.634 453.099 420.727C454.787 424.9 459.709 426.8 463.665 424.658C465.247 423.803 489.847 411.537 500.035 394.983C500.497 394.234 499.779 393.145 498.968 393.484C491.79 396.499 484.375 398.972 474.514 402.916C462.775 407.615 456.25 397.98 450.328 390.576C444.41 383.167 439.475 402.916 439.475 402.916Z" fill="url(#paint24_radial_25_1066)"/>
<path d="M347.671 229.132C347.671 229.132 397.029 310.101 415.289 332.808C433.553 355.519 453.786 390.571 453.786 390.571C453.786 390.571 440.955 408.346 437.496 406.865C434.042 405.385 435.029 404.891 434.535 401.929C434.042 398.967 365.437 326.889 353.588 307.139C341.744 287.389 338.29 285.909 338.29 285.909C338.29 285.909 296.338 271.593 294.364 243.946C292.39 216.298 317.563 214.817 317.563 214.817L347.671 229.132Z" fill="#0061FE"/>
<path d="M360.753 259.495L398.757 316.765" stroke="#DEF4FF" stroke-width="0.385417" stroke-miterlimit="10"/>
<path d="M399.004 344.659C380.246 332.812 376.298 316.024 360.506 292.326C353.161 281.303 344.106 274.022 336.523 269.381C325.961 262.919 320.819 250.376 323.926 238.388C325.569 232.041 327.614 225.716 329.455 220.467L317.567 214.812C317.567 214.812 316.51 214.874 314.849 215.209L314.606 215.306L301.388 222.023C296.981 226.307 293.597 233.121 294.368 243.941C296.342 271.589 338.294 285.904 338.294 285.904C338.294 285.904 341.749 287.385 353.593 307.134C365.437 326.884 434.047 398.963 434.54 401.925C435.034 404.886 434.047 405.38 437.501 406.861C439.158 407.57 442.978 403.846 446.503 399.778C437.347 386.609 413.848 354.038 399.004 344.659Z" fill="url(#paint25_radial_25_1066)"/>
<path d="M399.004 344.659C380.246 332.812 376.298 316.024 360.506 292.326C344.714 268.627 321.022 262.21 321.022 262.21C319.48 251.72 325.054 233.019 329.455 220.467L317.567 214.812C317.567 214.812 316.51 214.874 314.849 215.209L314.606 215.306L301.388 222.023C296.981 226.307 293.597 233.121 294.368 243.941C296.342 271.589 338.294 285.904 338.294 285.904C338.294 285.904 341.749 287.385 353.593 307.134C365.437 326.884 434.047 398.963 434.54 401.925C435.034 404.886 434.047 405.38 437.501 406.861C439.158 407.57 442.978 403.846 446.503 399.778C437.347 386.609 413.848 354.038 399.004 344.659Z" fill="url(#paint26_radial_25_1066)"/>
<path d="M480.07 229.811C480.07 229.811 499.691 228.145 502.652 229.132C502.652 229.132 503.145 227.651 499.197 225.677C495.249 223.702 487.847 224.69 487.847 224.69L478.47 225.183L480.07 229.811Z" fill="url(#paint27_radial_25_1066)"/>
<path d="M383.212 222.221C383.212 222.221 382.225 224.69 385.679 226.664C389.134 228.639 414.306 235.549 452.804 232.588C452.804 232.588 473.042 229.132 476.003 230.12C476.003 230.12 486.86 217.779 488.34 217.779C489.821 217.779 482.912 215.311 475.016 224.69L461.198 227.158H444.414L437.999 225.183C437.999 225.183 412.826 219.26 396.54 206.915C380.246 194.574 383.212 222.221 383.212 222.221Z" fill="#FFDE99"/>
<path d="M383.212 222.221C383.212 222.221 382.225 224.69 385.679 226.664C389.134 228.639 414.306 235.549 452.804 232.588C452.804 232.588 473.042 229.132 476.003 230.12C476.003 230.12 486.86 217.779 488.34 217.779C489.821 217.779 482.912 215.311 475.016 224.69L461.198 227.158H444.414L437.999 225.183C437.999 225.183 412.826 219.26 396.54 206.915C380.246 194.574 383.212 222.221 383.212 222.221Z" fill="url(#paint28_radial_25_1066)"/>
<path d="M388.64 153.104C388.64 153.104 395.056 194.08 394.069 199.51C394.069 199.51 397.523 198.029 398.51 199.51C399.497 200.991 398.51 203.459 398.51 203.459L400.978 206.915C400.978 206.915 385.679 224.69 383.207 224.69C381.55 224.69 379.004 221.128 377.505 218.788C376.884 217.814 376.774 216.584 377.29 215.553C377.558 215.015 377.779 214.284 377.779 213.336C377.779 210.868 371.857 201.489 370.87 172.854C369.883 144.215 388.64 153.104 388.64 153.104Z" fill="#F1D23C"/>
<path d="M388.64 153.104C388.64 153.104 395.056 194.08 394.069 199.51C394.069 199.51 397.523 198.029 398.51 199.51C399.497 200.991 398.51 203.459 398.51 203.459L400.978 206.915C400.978 206.915 385.679 224.69 383.207 224.69C381.55 224.69 379.004 221.128 377.505 218.788C376.884 217.814 376.774 216.584 377.29 215.553C377.558 215.015 377.779 214.284 377.779 213.336C377.779 210.868 371.857 201.489 370.87 172.854C369.883 144.215 388.64 153.104 388.64 153.104Z" fill="url(#paint29_radial_25_1066)"/>
<path d="M384.692 156.56C384.692 156.56 370.147 202.445 363.961 214.817C360.506 221.728 353.597 229.132 353.597 229.132C346.195 230.613 327.931 221.728 327.931 221.728L347.675 174.824L384.692 156.56Z" fill="#FB8F8F"/>
<path d="M400.978 118.546C400.978 118.546 395.056 122.989 387.653 140.764L380.744 134.346L375.809 126.942L374.822 121.512C374.822 121.512 387.653 113.12 386.173 100.282C384.692 87.4428 409.367 101.758 400.978 118.546Z" fill="#FFDE99"/>
<path d="M400.978 118.546C400.978 118.546 395.056 122.989 387.653 140.764L380.744 134.346L375.809 126.942L374.822 121.512C374.822 121.512 387.653 113.12 386.173 100.282C384.692 87.4428 409.367 101.758 400.978 118.546Z" fill="url(#paint30_radial_25_1066)"/>
<path d="M413.808 79.5405C413.808 79.5405 414.795 118.048 408.38 123.478C408.38 123.478 398.51 123.972 394.068 119.529C388.146 113.605 386.666 107.188 386.666 107.188V101.265L377.783 97.8092L373.835 85.4684L380.25 78.064L398.021 75.5958L409.371 76.0895L413.808 79.5405Z" fill="#FFDE99"/>
<path d="M413.808 79.5405C413.808 79.5405 414.795 118.048 408.38 123.478C408.38 123.478 398.51 123.972 394.068 119.529C388.146 113.605 386.666 107.188 386.666 107.188V101.265L377.783 97.8092L373.835 85.4684L380.25 78.064L398.021 75.5958L409.371 76.0895L413.808 79.5405Z" fill="url(#paint31_radial_25_1066)"/>
<path d="M411.24 117.506C412.491 112.697 413.156 105.914 413.505 99.409C409.878 95.6099 394.562 99.7881 394.562 99.7881V100.282L391.601 113.61L404.926 121.014L411.24 117.506Z" fill="url(#paint32_radial_25_1066)"/>
<path d="M398.96 84.8425C399.303 83.366 400.149 82.035 401.392 81.1623C402.388 80.466 403.498 80.1222 404.19 81.2681C405.67 83.7363 409.125 90.1535 416.034 87.1917C422.943 84.2299 418.501 74.3573 418.501 74.3573C418.501 74.3573 421.956 78.8 420.475 81.7618C420.475 81.7618 427.384 75.3446 420.969 65.4676C414.553 55.5906 405.67 71.3911 402.705 65.4676C399.739 59.544 394.809 56.0886 390.367 60.0376C385.926 63.9867 386.419 65.4676 386.419 65.4676C386.419 65.4676 387.406 61.5185 383.458 62.0122C379.51 62.5058 377.536 63.9867 372.601 62.5058C367.666 61.0249 356.805 63.493 362.731 79.7872C368.653 96.0814 375.562 96.575 374.082 99.5368C372.601 102.499 370.134 108.422 378.523 107.929C386.913 107.435 386.115 104.83 386.115 104.83L386.913 101.511C386.913 101.511 379.51 99.0432 383.952 93.1196C388.393 87.1961 390.861 93.1196 390.861 93.1196C390.861 93.1196 395.796 88.677 397.77 82.7534C397.77 82.7534 395.796 90.6515 393.328 92.626C393.328 92.626 397.541 90.938 398.96 84.8425Z" fill="#241921"/>
<path d="M398.96 84.8425C399.303 83.366 400.149 82.035 401.392 81.1623C402.388 80.466 403.498 80.1222 404.19 81.2681C405.67 83.7363 409.125 90.1535 416.034 87.1917C422.943 84.2299 418.501 74.3573 418.501 74.3573C418.501 74.3573 421.956 78.8 420.475 81.7618C420.475 81.7618 427.384 75.3446 420.969 65.4676C414.553 55.5906 405.67 71.3911 402.705 65.4676C399.739 59.544 394.809 56.0886 390.367 60.0376C385.926 63.9867 386.419 65.4676 386.419 65.4676C386.419 65.4676 387.406 61.5185 383.458 62.0122C379.51 62.5058 377.536 63.9867 372.601 62.5058C367.666 61.0249 356.805 63.493 362.731 79.7872C368.653 96.0814 375.562 96.575 374.082 99.5368C372.601 102.499 370.134 108.422 378.523 107.929C386.913 107.435 386.115 104.83 386.115 104.83L386.913 101.511C386.913 101.511 379.51 99.0432 383.952 93.1196C388.393 87.1961 390.861 93.1196 390.861 93.1196C390.861 93.1196 395.796 88.677 397.77 82.7534C397.77 82.7534 395.796 90.6515 393.328 92.626C393.328 92.626 397.541 90.938 398.96 84.8425Z" fill="url(#paint33_radial_25_1066)"/>
<path d="M390.121 132.368C390.121 132.368 382.718 128.912 379.757 120.521C376.796 112.129 369.394 111.142 369.394 111.142C369.394 111.142 367.42 110.648 368.407 114.597C369.394 118.546 366.926 124.963 357.55 126.444C348.173 127.925 286.97 139.278 278.576 154.092C278.576 154.092 276.109 147.675 275.122 155.079V160.509C275.122 160.509 272.161 156.066 271.667 160.509C271.174 164.952 274.135 165.445 274.135 165.445L275.615 163.964C275.615 163.964 295.36 173.343 293.386 179.267C293.386 179.267 296.347 181.735 296.84 175.318C296.84 175.318 297.334 177.292 301.282 175.811L301.775 173.343C301.775 173.343 315.593 170.875 323.494 170.382C323.494 170.382 307.204 194.08 301.282 197.536C295.36 200.991 261.797 227.158 261.797 227.158L216.876 253.325C216.876 253.325 236.62 282.947 240.568 283.44L247.971 278.998C247.971 278.998 255.373 283.44 259.815 291.338C264.256 299.237 275.113 310.594 295.351 309.607C295.351 309.607 290.909 285.908 315.095 243.452C339.281 200.995 372.844 179.267 385.186 161.003C397.523 142.734 396.536 134.342 396.536 134.342L390.121 132.368Z" fill="#F1D23C"/>
<path d="M390.121 132.368C390.121 132.368 382.718 128.912 379.757 120.521C376.796 112.129 369.394 111.142 369.394 111.142C369.394 111.142 367.42 110.648 368.407 114.597C369.394 118.546 366.926 124.963 357.55 126.444C348.173 127.925 286.97 139.278 278.576 154.092C278.576 154.092 276.109 147.675 275.122 155.079V160.509C275.122 160.509 272.161 156.066 271.667 160.509C271.174 164.952 274.135 165.939 274.135 165.939L275.122 164.458C275.122 164.458 295.36 173.343 293.386 179.267C293.386 179.267 296.347 181.735 296.84 175.318C296.84 175.318 297.334 177.292 301.282 175.811L301.775 173.343C301.775 173.343 315.593 170.875 323.494 170.382C323.494 170.382 307.204 194.08 301.282 197.536C295.36 200.991 261.797 227.158 261.797 227.158L216.876 253.325C216.876 253.325 236.62 282.947 240.568 283.44L247.971 278.998C247.971 278.998 255.373 283.44 259.815 291.338C264.256 299.237 275.113 310.594 295.351 309.607C295.351 309.607 290.909 285.908 315.095 243.452C339.281 200.995 372.844 179.267 385.186 161.003C397.523 142.734 396.536 134.342 396.536 134.342L390.121 132.368Z" fill="url(#paint34_radial_25_1066)"/>
<path d="M396.536 134.342L390.121 132.368C390.121 132.368 382.718 128.912 379.757 120.521C376.796 112.129 369.394 111.142 369.394 111.142C369.394 111.142 367.42 110.648 368.407 114.597C369.394 118.546 366.926 124.963 357.55 126.444C355.378 126.788 350.429 127.661 344.005 128.983C344.186 132.412 344.433 135.841 344.767 139.261C346.499 157.009 350.738 174.145 357.449 190.307C369.222 178.659 379.48 169.46 385.195 161.003C397.523 142.734 396.536 134.342 396.536 134.342Z" fill="url(#paint35_radial_25_1066)"/>
<path d="M178.132 222.468C178.132 222.468 233.906 210.621 279.313 237.277C285.962 241.182 341.996 296.028 464.401 329.599C513.879 343.169 641.101 361.196 641.101 361.196" stroke="#0144B9" stroke-width="0.385417" stroke-miterlimit="10"/>
<path d="M293.381 179.76C293.381 179.76 273.866 211.282 269.803 221.441C269.803 221.441 276.602 225.183 278.083 227.158C279.563 229.132 282.524 236.537 287.459 238.511C287.459 238.511 284.005 241.473 281.537 239.498C279.07 237.524 279.07 237.524 279.07 237.524L281.537 240.486C281.537 240.486 278.576 244.435 276.602 243.941C274.628 243.447 275.122 244.435 272.654 243.941C270.187 243.447 268.706 241.967 268.706 241.967C268.706 241.967 268.706 243.447 267.226 242.954C266.085 242.575 261.15 237.048 258.933 234.06C258.246 233.134 258.017 231.944 258.308 230.829L260.81 221.23C260.81 221.23 263.771 181.241 275.122 164.453C275.117 164.458 296.836 171.369 293.381 179.76Z" fill="#FFDE99"/>
<path d="M293.381 179.76C293.381 179.76 273.866 211.282 269.803 221.441C269.803 221.441 276.602 225.183 278.083 227.158C279.563 229.132 282.524 236.537 287.459 238.511C287.459 238.511 284.005 241.473 281.537 239.498C279.07 237.524 279.07 237.524 279.07 237.524L281.537 240.486C281.537 240.486 278.576 244.435 276.602 243.941C274.628 243.447 275.122 244.435 272.654 243.941C270.187 243.447 268.706 241.967 268.706 241.967C268.706 241.967 268.706 243.447 267.226 242.954C266.085 242.575 261.15 237.048 258.933 234.06C258.246 233.134 258.017 231.944 258.308 230.829L260.81 221.23C260.81 221.23 263.771 181.241 275.122 164.453C275.117 164.458 296.836 171.369 293.381 179.76Z" fill="url(#paint36_radial_25_1066)"/>
<path d="M513.297 227.29H398.083C397.157 227.29 396.408 226.541 396.408 225.615V225.214C396.408 224.288 397.157 223.539 398.083 223.539H513.297C514.223 223.539 514.972 224.288 514.972 225.214V225.615C514.972 226.536 514.223 227.29 513.297 227.29Z" fill="#241921"/>
<path d="M513.297 227.29H445.009C444.084 227.29 443.335 226.541 443.335 225.615V225.214C443.335 224.288 444.084 223.539 445.009 223.539H513.297C514.223 223.539 514.972 224.288 514.972 225.214V225.615C514.972 226.536 514.223 227.29 513.297 227.29Z" fill="#0061FE"/>
<path d="M531.156 164.705H463.934C463.026 164.705 462.224 165.286 461.942 166.146L444.242 219.837C443.793 221.194 444.806 222.596 446.234 222.596H513.456C514.364 222.596 515.166 222.014 515.448 221.155L533.147 167.464C533.597 166.102 532.583 164.705 531.156 164.705Z" fill="#0061FE"/>
<path d="M435.439 226.351H429.953C429.565 226.351 429.257 226.038 429.257 225.655V225.487C429.257 225.099 429.57 224.791 429.953 224.791H435.439C435.827 224.791 436.135 225.104 436.135 225.487V225.655C436.139 226.038 435.827 226.351 435.439 226.351Z" stroke="#0061FE" stroke-width="0.385417" stroke-miterlimit="10"/>
<path d="M510.363 226.505H504.877C504.489 226.505 504.181 226.192 504.181 225.809V225.642C504.181 225.254 504.493 224.945 504.877 224.945H510.363C510.75 224.945 511.059 225.258 511.059 225.642V225.809C511.063 226.192 510.75 226.505 510.363 226.505Z" stroke="#0061FE" stroke-width="0.385417" stroke-miterlimit="10"/>
<path d="M424.022 226.505H418.537C418.149 226.505 417.84 226.192 417.84 225.809V225.642C417.84 225.254 418.153 224.945 418.537 224.945H424.022C424.41 224.945 424.719 225.258 424.719 225.642V225.809C424.719 226.192 424.406 226.505 424.022 226.505Z" stroke="#0061FE" stroke-width="0.385417" stroke-miterlimit="10"/>
<path d="M439.664 226.505H439.497C439.109 226.505 438.801 226.192 438.801 225.809V225.642C438.801 225.254 439.114 224.945 439.497 224.945H439.664C440.052 224.945 440.361 225.258 440.361 225.642V225.809C440.361 226.192 440.048 226.505 439.664 226.505Z" stroke="#0061FE" stroke-width="0.385417" stroke-miterlimit="10"/>
<path d="M532.39 165.106C532.046 164.855 531.623 164.705 531.156 164.705H463.934C463.026 164.705 462.225 165.286 461.943 166.146L444.45 219.207L532.39 165.106Z" fill="url(#paint37_linear_25_1066)"/>
<path d="M521.092 168.804L499.819 181.946" stroke="white" stroke-width="0.385417" stroke-miterlimit="10"/>
<path d="M473.037 230.613L484.56 229.3C484.56 229.3 492.064 220.635 495.875 219.207C495.875 219.207 493.271 216.792 487.349 221.728C481.427 226.664 481.92 226.17 481.92 226.17H475.505L473.037 230.613Z" fill="#FFDE99"/>
<path d="M473.037 230.613L484.56 229.3C484.56 229.3 492.064 220.635 495.875 219.207C495.875 219.207 493.271 216.792 487.349 221.728C481.427 226.664 481.92 226.17 481.92 226.17H475.505L473.037 230.613Z" fill="url(#paint38_radial_25_1066)"/>
<path d="M475.011 224.69L461.193 227.158H461.101C458.558 227.158 456.042 227.647 453.659 228.533C449.433 230.106 441.841 231.662 440.352 233.231C444.326 233.125 448.477 232.918 452.799 232.588C452.799 232.588 471.063 231.107 475.998 230.119C475.998 230.119 486.855 217.779 488.336 217.779C489.816 217.779 482.912 215.311 475.011 224.69Z" fill="#FFDE99"/>
<path d="M247.971 278.998C247.971 278.998 241.062 273.074 240.568 277.023C240.075 280.972 241.555 282.947 240.568 283.44L247.971 278.998Z" fill="url(#paint39_radial_25_1066)"/>
<path d="M241.537 275.666L241.568 275.705C243.608 275.26 247.966 278.998 247.966 278.998C247.966 278.998 255.369 283.44 259.81 291.338C260.7 292.925 261.859 294.648 263.291 296.389L294.408 237.528L241.537 275.666Z" fill="url(#paint40_radial_25_1066)"/>
<path d="M281.533 240.486L279.476 238.018C279.476 238.018 276.105 235.056 276.105 232.094C276.105 229.665 266.147 235.201 259.295 234.549C261.648 237.612 266.138 242.597 267.217 242.958C268.698 243.452 268.698 241.971 268.698 241.971C268.698 241.971 270.178 243.452 272.646 243.945C275.113 244.439 274.62 243.452 276.594 243.945C278.572 244.439 281.533 240.486 281.533 240.486Z" fill="url(#paint41_radial_25_1066)"/>
<path d="M389.874 136.563C389.874 136.563 388.887 153.351 359.722 179.901" stroke="white" stroke-width="0.385417" stroke-miterlimit="10"/>
<path d="M397.276 77.3191C397.276 77.3191 395.796 85.2172 389.874 89.1662" stroke="#0061FE" stroke-width="0.385417" stroke-miterlimit="10"/>
<path d="M393.822 79.2936C393.822 79.2936 391.354 85.7108 381.978 90.1534" stroke="#0061FE" stroke-width="0.385417" stroke-miterlimit="10"/>
<path d="M451.323 389.09C451.323 389.09 445.401 399.456 437.999 403.899" stroke="#DEF4FF" stroke-width="0.385417" stroke-miterlimit="10"/>
<path d="M201.33 299.483C201.33 299.483 202.577 291.18 208.125 287.187" stroke="#DEF4FF" stroke-width="0.385417" stroke-miterlimit="10"/>
<path d="M88.2704 322.164C86.0761 325.059 86.1642 329.462 88.4775 332.266C91.1477 335.501 95.9945 336.36 98.5149 339.71C100.436 342.262 100.52 346.048 98.7132 348.683" stroke="#0061FE" stroke-width="0.385417" stroke-miterlimit="10"/>
<path d="M719.541 302.568C721.365 302.568 722.845 301.088 722.845 299.263C722.845 297.437 721.365 295.957 719.541 295.957C717.716 295.957 716.236 297.437 716.236 299.263C716.236 301.088 717.716 302.568 719.541 302.568Z" stroke="#0061FE" stroke-width="0.385417" stroke-miterlimit="10"/>
<path d="M145.853 170.286L141.598 171.431L142.743 175.687L146.998 174.542L145.853 170.286Z" stroke="#FA404B" stroke-width="0.385417" stroke-miterlimit="10"/>
<path d="M495.483 274.802C495.483 274.802 511.345 257.172 534.258 266.868" stroke="#FA404B" stroke-width="0.385417" stroke-miterlimit="10"/>
<path d="M181.758 339.15L174.708 349.728" stroke="#FA404B" stroke-width="0.385417" stroke-miterlimit="10"/>
<path d="M240.802 73.3833L247.411 78.2315" stroke="#FA404B" stroke-width="0.385417" stroke-miterlimit="10"/>
<path d="M663.07 234.721C668.186 235.955 673.967 233.584 676.747 229.11C677.765 227.471 678.399 225.611 679.426 223.971C681.321 220.952 684.577 218.823 688.102 218.299" stroke="#0061FE" stroke-width="0.385417" stroke-miterlimit="10"/>
<defs>
<radialGradient id="paint0_radial_25_1066" cx="0" cy="0" r="1" gradientUnits="userSpaceOnUse" gradientTransform="translate(381.401 90.7321) scale(444.837 444.954)">
<stop stop-color="#EECFF8"/>
<stop offset="0.9011" stop-color="white" stop-opacity="0"/>
</radialGradient>
<radialGradient id="paint1_radial_25_1066" cx="0" cy="0" r="1" gradientUnits="userSpaceOnUse" gradientTransform="translate(687.498 424.321) scale(56.9063 56.9213)">
<stop offset="0.3231" stop-color="#C184A8" stop-opacity="0.2102"/>
<stop offset="0.9171" stop-color="#0061FE"/>
</radialGradient>
<radialGradient id="paint2_radial_25_1066" cx="0" cy="0" r="1" gradientUnits="userSpaceOnUse" gradientTransform="translate(682.823 411.786) scale(24.1423 24.1486)">
<stop offset="0.1043" stop-color="#FFDE99"/>
<stop offset="0.1056" stop-color="#FFDE99" stop-opacity="0.9985"/>
<stop offset="0.268" stop-color="#E9BD9E" stop-opacity="0.8173"/>
<stop offset="0.4348" stop-color="#D7A4A3" stop-opacity="0.6311"/>
<stop offset="0.6085" stop-color="#CB92A6" stop-opacity="0.4371"/>
<stop offset="0.7917" stop-color="#C387A7" stop-opacity="0.2326"/>
<stop offset="1" stop-color="#C184A8" stop-opacity="0"/>
</radialGradient>
<radialGradient id="paint3_radial_25_1066" cx="0" cy="0" r="1" gradientUnits="userSpaceOnUse" gradientTransform="translate(602.273 439.101) scale(63.1905 63.2071)">
<stop offset="0.3231" stop-color="#C184A8" stop-opacity="0.2102"/>
<stop offset="0.9171" stop-color="#0061FE"/>
</radialGradient>
<radialGradient id="paint4_radial_25_1066" cx="0" cy="0" r="1" gradientUnits="userSpaceOnUse" gradientTransform="translate(604.079 422.824) scale(40.8979 40.9086)">
<stop offset="0.1043" stop-color="#FFDE99"/>
<stop offset="0.1056" stop-color="#FFDE99" stop-opacity="0.9985"/>
<stop offset="0.268" stop-color="#E9BD9E" stop-opacity="0.8173"/>
<stop offset="0.4348" stop-color="#D7A4A3" stop-opacity="0.6311"/>
<stop offset="0.6085" stop-color="#CB92A6" stop-opacity="0.4371"/>
<stop offset="0.7917" stop-color="#C387A7" stop-opacity="0.2326"/>
<stop offset="1" stop-color="#C184A8" stop-opacity="0"/>
</radialGradient>
<radialGradient id="paint5_radial_25_1066" cx="0" cy="0" r="1" gradientUnits="userSpaceOnUse" gradientTransform="translate(656.73 351.076) scale(33.7683 33.7772)">
<stop offset="0.3231" stop-color="#C184A8" stop-opacity="0.2102"/>
<stop offset="0.9171" stop-color="#0061FE"/>
</radialGradient>
<radialGradient id="paint6_radial_25_1066" cx="0" cy="0" r="1" gradientUnits="userSpaceOnUse" gradientTransform="translate(638.554 397.546) rotate(-12.7888) scale(194.544 71.0976)">
<stop offset="0.3231" stop-color="#C184A8" stop-opacity="0.2102"/>
<stop offset="0.9171" stop-color="#0061FE"/>
</radialGradient>
<radialGradient id="paint7_radial_25_1066" cx="0" cy="0" r="1" gradientUnits="userSpaceOnUse" gradientTransform="translate(570.786 420.766) scale(39.073 39.0832)">
<stop offset="0.1043" stop-color="#FFDE99"/>
<stop offset="0.1056" stop-color="#FFDE99" stop-opacity="0.9985"/>
<stop offset="0.268" stop-color="#E9BD9E" stop-opacity="0.8173"/>
<stop offset="0.4348" stop-color="#D7A4A3" stop-opacity="0.6311"/>
<stop offset="0.6085" stop-color="#CB92A6" stop-opacity="0.4371"/>
<stop offset="0.7917" stop-color="#C387A7" stop-opacity="0.2326"/>
<stop offset="1" stop-color="#C184A8" stop-opacity="0"/>
</radialGradient>
<radialGradient id="paint8_radial_25_1066" cx="0" cy="0" r="1" gradientUnits="userSpaceOnUse" gradientTransform="translate(658.135 421.327) scale(24.4762 24.4828)">
<stop offset="0.1043" stop-color="#FFDE99"/>
<stop offset="0.1056" stop-color="#FFDE99" stop-opacity="0.9985"/>
<stop offset="0.268" stop-color="#E9BD9E" stop-opacity="0.8173"/>
<stop offset="0.4348" stop-color="#D7A4A3" stop-opacity="0.6311"/>
<stop offset="0.6085" stop-color="#CB92A6" stop-opacity="0.4371"/>
<stop offset="0.7917" stop-color="#C387A7" stop-opacity="0.2326"/>
<stop offset="1" stop-color="#C184A8" stop-opacity="0"/>
</radialGradient>
<radialGradient id="paint9_radial_25_1066" cx="0" cy="0" r="1" gradientUnits="userSpaceOnUse" gradientTransform="translate(690.455 374.253) rotate(-17.4916) scale(56.5876 38.0979)">
<stop offset="0.1043" stop-color="#FFDE99"/>
<stop offset="0.1056" stop-color="#FFDE99" stop-opacity="0.9985"/>
<stop offset="0.268" stop-color="#E9BD9E" stop-opacity="0.8173"/>
<stop offset="0.4348" stop-color="#D7A4A3" stop-opacity="0.6311"/>
<stop offset="0.6085" stop-color="#CB92A6" stop-opacity="0.4371"/>
<stop offset="0.7917" stop-color="#C387A7" stop-opacity="0.2326"/>
<stop offset="1" stop-color="#C184A8" stop-opacity="0"/>
</radialGradient>
<radialGradient id="paint10_radial_25_1066" cx="0" cy="0" r="1" gradientUnits="userSpaceOnUse" gradientTransform="translate(666.362 383.723) scale(30.7916 30.7996)">
<stop stop-color="#0061FE"/>
<stop offset="0.0175" stop-color="#1B66F2"/>
<stop offset="0.0482" stop-color="#466EDF"/>
<stop offset="0.0825" stop-color="#6C75CE"/>
<stop offset="0.1196" stop-color="#8D7BBF"/>
<stop offset="0.1604" stop-color="#A980B3"/>
<stop offset="0.2062" stop-color="#C084A9"/>
<stop offset="0.2592" stop-color="#D187A1"/>
<stop offset="0.3238" stop-color="#DD899C"/>
<stop offset="0.4126" stop-color="#E48B99"/>
<stop offset="0.639" stop-color="#E68B98"/>
<stop offset="1" stop-color="#FB8F8F" stop-opacity="0"/>
</radialGradient>
<radialGradient id="paint11_radial_25_1066" cx="0" cy="0" r="1" gradientUnits="userSpaceOnUse" gradientTransform="translate(682.308 354.958) scale(8.25995 8.26209)">
<stop stop-color="#0144B9"/>
<stop offset="0.0286" stop-color="#0C47B7" stop-opacity="0.9606"/>
<stop offset="0.2403" stop-color="#5C5FAA" stop-opacity="0.6686"/>
<stop offset="0.3908" stop-color="#8E6EA1" stop-opacity="0.4611"/>
<stop offset="0.4648" stop-color="#A1749E" stop-opacity="0.3591"/>
<stop offset="0.4868" stop-color="#A7769D" stop-opacity="0.3443"/>
<stop offset="0.6368" stop-color="#CB8197" stop-opacity="0.2437"/>
<stop offset="0.7768" stop-color="#E68993" stop-opacity="0.1497"/>
<stop offset="0.9021" stop-color="#F58D90" stop-opacity="0.0657"/>
<stop offset="1" stop-color="#FB8F8F" stop-opacity="0"/>
</radialGradient>
<radialGradient id="paint12_radial_25_1066" cx="0" cy="0" r="1" gradientUnits="userSpaceOnUse" gradientTransform="translate(717.359 381.228) scale(25.2466 25.2532)">
<stop offset="0.3176" stop-color="#FB8F8F" stop-opacity="0"/>
<stop offset="0.3846" stop-color="#F58D90" stop-opacity="0.0982"/>
<stop offset="0.4703" stop-color="#E58993" stop-opacity="0.2238"/>
<stop offset="0.5662" stop-color="#CB8197" stop-opacity="0.3644"/>
<stop offset="0.6696" stop-color="#A6769D" stop-opacity="0.5158"/>
<stop offset="0.779" stop-color="#7768A5" stop-opacity="0.6762"/>
<stop offset="0.8915" stop-color="#3F57AF" stop-opacity="0.8411"/>
<stop offset="1" stop-color="#0144B9"/>
</radialGradient>
<radialGradient id="paint13_radial_25_1066" cx="0" cy="0" r="1" gradientUnits="userSpaceOnUse" gradientTransform="translate(684.507 365.482) scale(10.9584 10.9616)">
<stop offset="0.3176" stop-color="#FB8F8F" stop-opacity="0"/>
<stop offset="0.3846" stop-color="#F58D90" stop-opacity="0.0982"/>
<stop offset="0.4703" stop-color="#E58993" stop-opacity="0.2238"/>
<stop offset="0.5662" stop-color="#CB8197" stop-opacity="0.3644"/>
<stop offset="0.6696" stop-color="#A6769D" stop-opacity="0.5158"/>
<stop offset="0.779" stop-color="#7768A5" stop-opacity="0.6762"/>
<stop offset="0.8915" stop-color="#3F57AF" stop-opacity="0.8411"/>
<stop offset="1" stop-color="#0144B9"/>
</radialGradient>
<radialGradient id="paint14_radial_25_1066" cx="0" cy="0" r="1" gradientUnits="userSpaceOnUse" gradientTransform="translate(681.206 361.994) rotate(102.085) scale(13.4695 7.11328)">
<stop offset="0.3176" stop-color="#FB8F8F" stop-opacity="0"/>
<stop offset="0.3846" stop-color="#F58D90" stop-opacity="0.0982"/>
<stop offset="0.4703" stop-color="#E58993" stop-opacity="0.2238"/>
<stop offset="0.5662" stop-color="#CB8197" stop-opacity="0.3644"/>
<stop offset="0.6696" stop-color="#A6769D" stop-opacity="0.5158"/>
<stop offset="0.779" stop-color="#7768A5" stop-opacity="0.6762"/>
<stop offset="0.8915" stop-color="#3F57AF" stop-opacity="0.8411"/>
<stop offset="1" stop-color="#0144B9"/>
</radialGradient>
<radialGradient id="paint15_radial_25_1066" cx="0" cy="0" r="1" gradientUnits="userSpaceOnUse" gradientTransform="translate(614.368 419.518) scale(65.9307 65.9479)">
<stop offset="0.3231" stop-color="#C184A8" stop-opacity="0.2102"/>
<stop offset="0.9171" stop-color="#0061FE"/>
</radialGradient>
<radialGradient id="paint16_radial_25_1066" cx="0" cy="0" r="1" gradientUnits="userSpaceOnUse" gradientTransform="translate(532.011 87.7258) scale(183.682 183.73)">
<stop stop-color="#0061FE"/>
<stop offset="0.0281" stop-color="#106CFE" stop-opacity="0.9719"/>
<stop offset="0.1219" stop-color="#408BFE" stop-opacity="0.8781"/>
<stop offset="0.2211" stop-color="#6AA7FE" stop-opacity="0.7789"/>
<stop offset="0.3241" stop-color="#8EBFFF" stop-opacity="0.6759"/>
<stop offset="0.4318" stop-color="#ABD2FF" stop-opacity="0.5682"/>
<stop offset="0.546" stop-color="#C2E1FF" stop-opacity="0.454"/>
<stop offset="0.6696" stop-color="#D2ECFF" stop-opacity="0.3304"/>
<stop offset="0.8094" stop-color="#DBF2FF" stop-opacity="0.1906"/>
<stop offset="1" stop-color="#DEF4FF" stop-opacity="0"/>
</radialGradient>
<radialGradient id="paint17_radial_25_1066" cx="0" cy="0" r="1" gradientUnits="userSpaceOnUse" gradientTransform="translate(535.13 109.331) scale(37.4922 37.502)">
<stop stop-color="#FB8F8F"/>
<stop offset="1" stop-color="#F9C1DA" stop-opacity="0"/>
</radialGradient>
<radialGradient id="paint18_radial_25_1066" cx="0" cy="0" r="1" gradientUnits="userSpaceOnUse" gradientTransform="translate(540.03 97.7056) scale(57.8281 57.8432)">
<stop stop-color="#FB8F8F"/>
<stop offset="1" stop-color="#F9C1DA" stop-opacity="0"/>
</radialGradient>
<radialGradient id="paint19_radial_25_1066" cx="0" cy="0" r="1" gradientUnits="userSpaceOnUse" gradientTransform="translate(545.538 91.7555) scale(57.828 57.8433)">
<stop stop-color="#FB8F8F"/>
<stop offset="1" stop-color="#F9C1DA" stop-opacity="0"/>
</radialGradient>
<radialGradient id="paint20_radial_25_1066" cx="0" cy="0" r="1" gradientUnits="userSpaceOnUse" gradientTransform="translate(532.191 135.822) scale(136.055 89.3742)">
<stop stop-color="#0061FE"/>
<stop offset="0.0281" stop-color="#106CFE" stop-opacity="0.9719"/>
<stop offset="0.1219" stop-color="#408BFE" stop-opacity="0.8781"/>
<stop offset="0.2211" stop-color="#6AA7FE" stop-opacity="0.7789"/>
<stop offset="0.3241" stop-color="#8EBFFF" stop-opacity="0.6759"/>
<stop offset="0.4318" stop-color="#ABD2FF" stop-opacity="0.5682"/>
<stop offset="0.546" stop-color="#C2E1FF" stop-opacity="0.454"/>
<stop offset="0.6696" stop-color="#D2ECFF" stop-opacity="0.3304"/>
<stop offset="0.8094" stop-color="#DBF2FF" stop-opacity="0.1906"/>
<stop offset="1" stop-color="#DEF4FF" stop-opacity="0"/>
</radialGradient>
<radialGradient id="paint21_radial_25_1066" cx="0" cy="0" r="1" gradientUnits="userSpaceOnUse" gradientTransform="translate(532.191 143.315) scale(136.055 89.3745)">
<stop stop-color="#0061FE"/>
<stop offset="0.0281" stop-color="#106CFE" stop-opacity="0.9719"/>
<stop offset="0.1219" stop-color="#408BFE" stop-opacity="0.8781"/>
<stop offset="0.2211" stop-color="#6AA7FE" stop-opacity="0.7789"/>
<stop offset="0.3241" stop-color="#8EBFFF" stop-opacity="0.6759"/>
<stop offset="0.4318" stop-color="#ABD2FF" stop-opacity="0.5682"/>
<stop offset="0.546" stop-color="#C2E1FF" stop-opacity="0.454"/>
<stop offset="0.6696" stop-color="#D2ECFF" stop-opacity="0.3304"/>
<stop offset="0.8094" stop-color="#DBF2FF" stop-opacity="0.1906"/>
<stop offset="1" stop-color="#DEF4FF" stop-opacity="0"/>
</radialGradient>
<radialGradient id="paint22_radial_25_1066" cx="0" cy="0" r="1" gradientUnits="userSpaceOnUse" gradientTransform="translate(190.665 265.983) scale(61.4359 61.452)">
<stop stop-color="#FA404B"/>
<stop offset="0.025" stop-color="#FA484F" stop-opacity="0.975"/>
<stop offset="0.1916" stop-color="#FC7565" stop-opacity="0.8084"/>
<stop offset="0.3589" stop-color="#FD9B78" stop-opacity="0.6411"/>
<stop offset="0.5244" stop-color="#FEB886" stop-opacity="0.4756"/>
<stop offset="0.6876" stop-color="#FECD91" stop-opacity="0.3124"/>
<stop offset="0.8474" stop-color="#FFDA97" stop-opacity="0.1526"/>
<stop offset="1" stop-color="#FFDE99" stop-opacity="0"/>
</radialGradient>
<radialGradient id="paint23_radial_25_1066" cx="0" cy="0" r="1" gradientUnits="userSpaceOnUse" gradientTransform="translate(287.051 247.524) scale(116.774 116.805)">
<stop offset="0.00534759" stop-color="#241921"/>
<stop offset="1" stop-color="#0061FE" stop-opacity="0"/>
</radialGradient>
<radialGradient id="paint24_radial_25_1066" cx="0" cy="0" r="1" gradientUnits="userSpaceOnUse" gradientTransform="translate(437.056 409.167) scale(41.7186 41.7295)">
<stop stop-color="#FA404B"/>
<stop offset="0.025" stop-color="#FA484F" stop-opacity="0.975"/>
<stop offset="0.1916" stop-color="#FC7565" stop-opacity="0.8084"/>
<stop offset="0.3589" stop-color="#FD9B78" stop-opacity="0.6411"/>
<stop offset="0.5244" stop-color="#FEB886" stop-opacity="0.4756"/>
<stop offset="0.6876" stop-color="#FECD91" stop-opacity="0.3124"/>
<stop offset="0.8474" stop-color="#FFDA97" stop-opacity="0.1526"/>
<stop offset="1" stop-color="#FFDE99" stop-opacity="0"/>
</radialGradient>
<radialGradient id="paint25_radial_25_1066" cx="0" cy="0" r="1" gradientUnits="userSpaceOnUse" gradientTransform="translate(233.559 194.766) scale(201.93 201.983)">
<stop offset="0.00534759" stop-color="#241921"/>
<stop offset="1" stop-color="#0061FE" stop-opacity="0"/>
</radialGradient>
<radialGradient id="paint26_radial_25_1066" cx="0" cy="0" r="1" gradientUnits="userSpaceOnUse" gradientTransform="translate(369.348 427.501) scale(123.717 123.749)">
<stop offset="0.00534759" stop-color="#241921"/>
<stop offset="1" stop-color="#0061FE" stop-opacity="0"/>
</radialGradient>
<radialGradient id="paint27_radial_25_1066" cx="0" cy="0" r="1" gradientUnits="userSpaceOnUse" gradientTransform="translate(477.832 222.642) scale(26.4986 26.5057)">
<stop stop-color="#FA404B"/>
<stop offset="0.025" stop-color="#FA484F"/>
<stop offset="0.1916" stop-color="#FC7565"/>
<stop offset="0.3589" stop-color="#FD9B78"/>
<stop offset="0.5244" stop-color="#FEB886"/>
<stop offset="0.6876" stop-color="#FECD91"/>
<stop offset="0.8474" stop-color="#FFDA97"/>
<stop offset="1" stop-color="#FFDE99"/>
</radialGradient>
<radialGradient id="paint28_radial_25_1066" cx="0" cy="0" r="1" gradientUnits="userSpaceOnUse" gradientTransform="translate(430.426 225.37) rotate(4.60687) scale(25.1171 12.1106)">
<stop stop-color="#FA404B"/>
<stop offset="0.025" stop-color="#FA484F" stop-opacity="0.975"/>
<stop offset="0.1916" stop-color="#FC7565" stop-opacity="0.8084"/>
<stop offset="0.3589" stop-color="#FD9B78" stop-opacity="0.6411"/>
<stop offset="0.5244" stop-color="#FEB886" stop-opacity="0.4756"/>
<stop offset="0.6876" stop-color="#FECD91" stop-opacity="0.3124"/>
<stop offset="0.8474" stop-color="#FFDA97" stop-opacity="0.1526"/>
<stop offset="1" stop-color="#FFDE99" stop-opacity="0"/>
</radialGradient>
<radialGradient id="paint29_radial_25_1066" cx="0" cy="0" r="1" gradientUnits="userSpaceOnUse" gradientTransform="translate(363.363 155.104) scale(113.369 113.399)">
<stop stop-color="#FB8F8F"/>
<stop offset="1" stop-color="#F9C1DA" stop-opacity="0"/>
</radialGradient>
<radialGradient id="paint30_radial_25_1066" cx="0" cy="0" r="1" gradientUnits="userSpaceOnUse" gradientTransform="translate(401.705 123.673) scale(28.2581 28.2655)">
<stop stop-color="#FA404B"/>
<stop offset="0.025" stop-color="#FA484F" stop-opacity="0.975"/>
<stop offset="0.1916" stop-color="#FC7565" stop-opacity="0.8084"/>
<stop offset="0.3589" stop-color="#FD9B78" stop-opacity="0.6411"/>
<stop offset="0.5244" stop-color="#FEB886" stop-opacity="0.4756"/>
<stop offset="0.6876" stop-color="#FECD91" stop-opacity="0.3124"/>
<stop offset="0.8474" stop-color="#FFDA97" stop-opacity="0.1526"/>
<stop offset="1" stop-color="#FFDE99" stop-opacity="0"/>
</radialGradient>
<radialGradient id="paint31_radial_25_1066" cx="0" cy="0" r="1" gradientUnits="userSpaceOnUse" gradientTransform="translate(378.949 86.3808) scale(36.8252 36.8348)">
<stop stop-color="#FA404B"/>
<stop offset="0.025" stop-color="#FA484F" stop-opacity="0.975"/>
<stop offset="0.1916" stop-color="#FC7565" stop-opacity="0.8084"/>
<stop offset="0.3589" stop-color="#FD9B78" stop-opacity="0.6411"/>
<stop offset="0.5244" stop-color="#FEB886" stop-opacity="0.4756"/>
<stop offset="0.6876" stop-color="#FECD91" stop-opacity="0.3124"/>
<stop offset="0.8474" stop-color="#FFDA97" stop-opacity="0.1526"/>
<stop offset="1" stop-color="#FFDE99" stop-opacity="0"/>
</radialGradient>
<radialGradient id="paint32_radial_25_1066" cx="0" cy="0" r="1" gradientUnits="userSpaceOnUse" gradientTransform="translate(411.119 90.8706) scale(27.4576 27.4648)">
<stop stop-color="#FA404B"/>
<stop offset="0.025" stop-color="#FA484F" stop-opacity="0.975"/>
<stop offset="0.1916" stop-color="#FC7565" stop-opacity="0.8084"/>
<stop offset="0.3589" stop-color="#FD9B78" stop-opacity="0.6411"/>
<stop offset="0.5244" stop-color="#FEB886" stop-opacity="0.4756"/>
<stop offset="0.6876" stop-color="#FECD91" stop-opacity="0.3124"/>
<stop offset="0.8474" stop-color="#FFDA97" stop-opacity="0.1526"/>
<stop offset="1" stop-color="#FFDE99" stop-opacity="0"/>
</radialGradient>
<radialGradient id="paint33_radial_25_1066" cx="0" cy="0" r="1" gradientUnits="userSpaceOnUse" gradientTransform="translate(449.526 80.3937) scale(78.4705 78.4911)">
<stop stop-color="#0061FE"/>
<stop offset="0.9947" stop-color="#241921"/>
</radialGradient>
<radialGradient id="paint34_radial_25_1066" cx="0" cy="0" r="1" gradientUnits="userSpaceOnUse" gradientTransform="translate(258.622 161.839) scale(134.761 134.796)">
<stop stop-color="#FB8F8F"/>
<stop offset="1" stop-color="#F9C1DA" stop-opacity="0"/>
</radialGradient>
<radialGradient id="paint35_radial_25_1066" cx="0" cy="0" r="1" gradientUnits="userSpaceOnUse" gradientTransform="translate(402.641 131.905) scale(67.2971 67.3148)">
<stop stop-color="white"/>
<stop offset="1" stop-color="#F1D23C" stop-opacity="0"/>
</radialGradient>
<radialGradient id="paint36_radial_25_1066" cx="0" cy="0" r="1" gradientUnits="userSpaceOnUse" gradientTransform="translate(255.255 154.979) scale(74.6459 74.6654)">
<stop stop-color="#FA404B"/>
<stop offset="0.025" stop-color="#FA484F" stop-opacity="0.975"/>
<stop offset="0.1916" stop-color="#FC7565" stop-opacity="0.8084"/>
<stop offset="0.3589" stop-color="#FD9B78" stop-opacity="0.6411"/>
<stop offset="0.5244" stop-color="#FEB886" stop-opacity="0.4756"/>
<stop offset="0.6876" stop-color="#FECD91" stop-opacity="0.3124"/>
<stop offset="0.8474" stop-color="#FFDA97" stop-opacity="0.1526"/>
<stop offset="1" stop-color="#FFDE99" stop-opacity="0"/>
</radialGradient>
<linearGradient id="paint37_linear_25_1066" x1="505.406" y1="112.724" x2="483.95" y2="213" gradientUnits="userSpaceOnUse">
<stop offset="0.1791" stop-color="#F9C1DA"/>
<stop offset="1" stop-color="#EECFF8" stop-opacity="0"/>
</linearGradient>
<radialGradient id="paint38_radial_25_1066" cx="0" cy="0" r="1" gradientUnits="userSpaceOnUse" gradientTransform="translate(476.99 225.074) scale(10.5157 10.5185)">
<stop stop-color="#FA404B"/>
<stop offset="0.025" stop-color="#FA484F" stop-opacity="0.975"/>
<stop offset="0.1916" stop-color="#FC7565" stop-opacity="0.8084"/>
<stop offset="0.3589" stop-color="#FD9B78" stop-opacity="0.6411"/>
<stop offset="0.5244" stop-color="#FEB886" stop-opacity="0.4756"/>
<stop offset="0.6876" stop-color="#FECD91" stop-opacity="0.3124"/>
<stop offset="0.8474" stop-color="#FFDA97" stop-opacity="0.1526"/>
<stop offset="1" stop-color="#FFDE99" stop-opacity="0"/>
</radialGradient>
<radialGradient id="paint39_radial_25_1066" cx="0" cy="0" r="1" gradientUnits="userSpaceOnUse" gradientTransform="translate(238.603 276.016) scale(17.1321 17.1364)">
<stop stop-color="#FB8F8F"/>
<stop offset="1" stop-color="#F9C1DA" stop-opacity="0"/>
</radialGradient>
<radialGradient id="paint40_radial_25_1066" cx="0" cy="0" r="1" gradientUnits="userSpaceOnUse" gradientTransform="translate(243.659 266.046) scale(33.9775 33.9864)">
<stop stop-color="white"/>
<stop offset="1" stop-color="#F1D23C" stop-opacity="0"/>
</radialGradient>
<radialGradient id="paint41_radial_25_1066" cx="0" cy="0" r="1" gradientUnits="userSpaceOnUse" gradientTransform="translate(264.233 230.936) scale(17.6521 17.6567)">
<stop stop-color="#FA404B"/>
<stop offset="0.025" stop-color="#FA484F" stop-opacity="0.975"/>
<stop offset="0.1916" stop-color="#FC7565" stop-opacity="0.8084"/>
<stop offset="0.3589" stop-color="#FD9B78" stop-opacity="0.6411"/>
<stop offset="0.5244" stop-color="#FEB886" stop-opacity="0.4756"/>
<stop offset="0.6876" stop-color="#FECD91" stop-opacity="0.3124"/>
<stop offset="0.8474" stop-color="#FFDA97" stop-opacity="0.1526"/>
<stop offset="1" stop-color="#FFDE99" stop-opacity="0"/>
</radialGradient>
</defs>
</svg>
